<?xml version="1.0" standalone="no"?>
<!DOCTYPE svg PUBLIC "-//W3C//DTD SVG 20010904//EN"
 "http://www.w3.org/TR/2001/REC-SVG-20010904/DTD/svg10.dtd">
<svg version="1.0" xmlns="http://www.w3.org/2000/svg"
 width="128.000000pt" height="128.000000pt" viewBox="0 0 128.000000 128.000000"
 preserveAspectRatio="xMidYMid meet">
<metadata>
Created by potrace 1.11, written by Peter Selinger 2001-2013
</metadata>
<g transform="translate(0.000000,128.000000) scale(0.100000,-0.100000)"
fill="#000000" stroke="none">
<path d="M592 1209 c-35 -45 -62 -68 -88 -78 -20 -7 -58 -26 -83 -42 -25 -16
-79 -45 -118 -66 -40 -21 -73 -41 -73 -46 0 -5 14 -27 31 -48 31 -39 31 -40
25 -127 -3 -48 -8 -100 -9 -117 -2 -16 1 -40 6 -53 8 -16 8 -29 1 -40 -16 -25
-7 -40 34 -61 21 -11 48 -30 61 -44 19 -22 22 -33 17 -69 -10 -81 -46 -209
-73 -265 -25 -50 -26 -56 -10 -64 9 -6 17 -19 17 -30 0 -11 5 -17 10 -14 6 3
10 1 10 -6 0 -7 11 -10 30 -7 17 3 30 0 30 -5 0 -6 8 -3 19 7 16 14 20 15 30
2 12 -15 28 -16 49 -3 6 5 17 5 24 1 19 -12 108 -12 101 -1 -4 6 -1 7 8 1 17
-11 70 -14 64 -4 -2 3 2 7 10 7 8 0 12 -4 10 -7 -3 -4 47 -7 110 -7 63 0 112
3 110 7 -2 3 9 5 26 4 16 -1 29 2 29 7 0 5 6 8 13 6 6 -1 11 6 9 15 -1 9 2 19
7 22 5 3 -2 34 -14 68 -28 76 -30 97 -22 168 4 30 9 91 11 135 6 113 38 185
93 206 12 4 30 20 39 35 16 24 16 29 3 53 -33 59 -137 15 -184 -80 -14 -27
-23 -49 -20 -49 3 0 1 -9 -5 -21 -6 -11 -12 -34 -12 -50 -2 -46 -17 -20 -24
41 -3 30 -8 58 -10 62 -2 3 3 13 11 21 39 40 46 136 15 204 -23 52 -71 124
-120 180 -21 23 -54 71 -74 105 -20 35 -45 74 -55 87 l-18 24 -51 -64z m-87
-1129 c4 -6 3 -10 -2 -9 -19 3 -27 -2 -15 -10 11 -7 10 -9 -3 -14 -9 -4 -13
-3 -10 3 3 6 1 10 -6 10 -7 0 -4 7 7 15 23 18 21 17 29 5z m65 0 c0 -5 -5 -10
-11 -10 -5 0 -7 5 -4 10 3 6 8 10 11 10 2 0 4 -4 4 -10z m300 4 c0 -8 -19 -13
-24 -6 -3 5 1 9 9 9 8 0 15 -2 15 -3z m-220 -8 c0 -2 -7 -9 -15 -16 -13 -11
-14 -10 -9 4 5 14 24 23 24 12z m84 -12 c5 -14 4 -15 -9 -4 -17 14 -19 20 -6
20 5 0 12 -7 15 -16z m-44 -9 c0 -1 -6 -8 -14 -14 -11 -9 -16 -9 -22 0 -5 8
-3 9 6 4 10 -6 12 -4 7 8 -4 11 -2 14 9 10 7 -3 14 -6 14 -8z m205 6 c-9 -8
-36 -10 -30 -2 2 4 11 8 20 8 8 0 13 -3 10 -6z m-294 -19 c-7 -2 -18 1 -23 6
-8 8 -4 9 13 5 13 -4 18 -8 10 -11z m183 4 c-3 -9 -12 -12 -22 -9 -15 6 -9 11
25 22 1 1 0 -5 -3 -13z m66 -1 c0 -11 -29 -11 -33 -1 -4 10 1 12 14 9 10 -3
19 -7 19 -8z"/>
</g>
</svg>
